# xmcd
#
# Track frame offsets:
# 150
# 8167
# 19201
# 21480
# 30806
# 38853
# 47793
# 55429
# 69272
# 81486
# 93445
# 99214
# 114417
# 125397
# 131851
# 141314
# 147932
# 152693
# 167198
# 184216
# 192217
# 200823
# 214366
# 226055
# 235780
# 243510
# 247839
# 256100
# 273154
# 291160
# 303238
# 318978
# 326631
# 334311
# 349573
# 355802
#
# Disc length: 4799 seconds
#
#
# Revision: 0
# Processed by: cddbd v1.5.2PL0 Copyright (c) Steve Scherf et al.
# Submitted via: FreeRIP 2.945 
#
DISCID=0d12bd24
DTITLE=Asaviour - Play 2 Win - Mixtape Vol. 1
DYEAR=2006
DGENRE=UKHH
TTITLE0=Play 2 Win Intro
TTITLE1=Asaviour - Drama Thing
TTITLE2=Peter Brown - Lead Me On
TTITLE3=Cappo - I Know
TTITLE4=Asaviour and Usmaan - 1Xtra Freestyle
TTITLE5=Verb T - Keep Movin'
TTITLE6=Asaviour - Themes Rmx
TTITLE7=Rodney P - Smugglin'
TTITLE8=Jehst and Asaviour - Weed
TTITLE9=Braintax - Let's Go Away
TTITLE10=Nas - One Love (MF Doom Rmx)
TTITLE11=Asaviour - Playin' The Game
TTITLE12=Milano - Done In Vain
TTITLE13=Asaviour - It's Like That Freestyle
TTITLE14=Asaviour - Bangers N' Mash
TTITLE15=Med - Push
TTITLE16=Asaviour - VIP Freestyle
TTITLE17=Kashmere - Permisson To Board
TTITLE18=Jehst, Asaviour and Deton-8 - Transform
TTITLE19=Bill Zoot - Are You Ready?
TTITLE20=Asaviour - A Track Called It
TTITLE21=Jehst and Asaviour - Wake Up
TTITLE22=Volton Craggie - By His Deeds
TTITLE23=Asaviour - On The Right Track (Ghost Production)
TTITLE24=Asaviour - Invisible Inc. Freestyle
TTITLE25=Willy Hutch - Brothers Gonna Work It Out
TTITLE26=Asaviour - Borrowed Ladder
TTITLE27=Asaviour and DJ IQ - MKD Freestyle
TTITLE28=Groundwurk - This Is For The Heads
TTITLE29=Kaspa - No Nonsence
TTITLE30=Konny Kon && Bill Zoot - Trenches
TTITLE31=Twinky Blu Tac - Move Freestyle
TTITLE32=Slum Village - The Hours
TTITLE33=Jay-Z - Some People Hate
TTITLE34=Asaviour - So Northern
TTITLE35=Play 2 Win Outro
EXTD=
EXTT0=
EXTT1=
EXTT2=
EXTT3=
EXTT4=
EXTT5=
EXTT6=
EXTT7=
EXTT8=
EXTT9=
EXTT10=
EXTT11=
EXTT12=
EXTT13=
EXTT14=
EXTT15=
EXTT16=
EXTT17=
EXTT18=
EXTT19=
EXTT20=
EXTT21=
EXTT22=
EXTT23=
EXTT24=
EXTT25=
EXTT26=
EXTT27=
EXTT28=
EXTT29=
EXTT30=
EXTT31=
EXTT32=
EXTT33=
EXTT34=
EXTT35=
PLAYORDER=
